<?xml version="1.0" standalone="no"?>
<!DOCTYPE svg PUBLIC "-//W3C//DTD SVG 20010904//EN"
 "http://www.w3.org/TR/2001/REC-SVG-20010904/DTD/svg10.dtd">
<svg version="1.0" xmlns="http://www.w3.org/2000/svg"
 width="141.000000pt" height="187.000000pt" viewBox="0 0 141.000000 187.000000"
 preserveAspectRatio="xMidYMid meet">
<metadata>
Created by potrace 1.10, written by Peter Selinger 2001-2011
</metadata>
<g transform="translate(0.000000,187.000000) scale(0.100000,-0.100000)"
fill="#000000" stroke="none">
<path d="M741 1379 c-20 -17 -33 -19 -75 -14 -51 7 -52 6 -84 -34 -21 -26 -41
-41 -55 -41 -35 0 -66 -27 -73 -66 -4 -24 -18 -45 -46 -67 -38 -30 -39 -33
-33 -78 5 -39 2 -55 -17 -88 l-23 -41 23 -41 c20 -34 22 -49 17 -88 -6 -47 -6
-49 33 -80 28 -21 42 -42 46 -66 7 -36 38 -65 69 -65 11 0 36 -19 57 -41 36
-40 40 -42 82 -36 34 5 52 2 76 -13 41 -25 63 -25 103 -1 25 15 43 18 79 14
45 -5 48 -4 75 31 18 24 40 39 68 47 46 12 66 33 67 68 0 14 16 38 41 61 39
35 41 40 37 81 -4 34 1 54 20 86 l24 43 -24 42 c-19 33 -24 53 -20 89 3 42 1
48 -30 74 -20 16 -39 46 -48 74 -14 42 -19 47 -62 59 -33 9 -54 23 -73 48 -26
35 -30 36 -74 30 -36 -5 -53 -2 -79 14 -41 25 -70 25 -101 -1z m99 -34 c14 -8
45 -14 69 -15 34 0 51 -6 71 -25 15 -14 46 -35 70 -48 31 -15 47 -31 53 -52 6
-16 25 -46 43 -67 26 -29 32 -45 32 -81 0 -25 7 -58 16 -75 14 -27 14 -33 -4
-78 -10 -27 -16 -61 -13 -75 3 -19 -5 -36 -33 -70 -20 -24 -41 -56 -46 -71 -6
-16 -24 -33 -46 -43 -20 -10 -52 -31 -69 -48 -27 -25 -40 -30 -73 -29 -22 2
-57 -5 -77 -14 -34 -17 -39 -17 -83 -1 -26 9 -64 17 -84 17 -26 0 -44 7 -63
26 -15 15 -44 34 -66 44 -28 13 -45 29 -57 56 -10 22 -30 52 -44 68 -18 21
-26 40 -26 67 0 21 -7 57 -16 79 -15 37 -15 43 0 80 9 22 16 58 16 80 0 27 7
47 21 61 11 11 33 41 48 67 18 30 41 54 71 69 24 13 52 32 62 43 14 14 32 20
66 20 26 1 58 7 72 15 14 8 34 14 45 14 11 0 31 -6 45 -14z"/>
<path d="M710 1235 c-19 -7 -57 -14 -83 -14 -37 -1 -54 -7 -72 -26 -24 -23
-25 -28 -25 -177 0 -130 -3 -160 -20 -196 -19 -42 -19 -43 0 -87 15 -35 28
-49 65 -66 43 -20 47 -20 85 -5 29 11 73 16 154 16 100 0 116 2 140 21 25 20
26 25 25 109 -1 76 2 94 21 125 40 64 80 155 80 180 0 30 -36 56 -67 49 -17
-5 -30 2 -52 25 -25 27 -36 31 -80 31 -29 0 -68 7 -88 15 -41 17 -38 17 -83 0z
m98 -35 c17 0 22 -6 22 -28 l0 -27 -75 -1 -75 -1 0 29 c0 22 5 28 21 28 11 0
27 7 36 15 14 14 17 14 32 0 10 -8 27 -15 39 -15z m-148 -24 c0 -10 -13 -16
-37 -18 l-38 -3 0 -143 c0 -107 -3 -142 -12 -142 -10 0 -13 37 -13 153 0 85 3
157 7 160 3 4 26 7 50 7 31 0 43 -4 43 -14z m288 -55 c2 -36 -2 -69 -7 -74 -8
-8 -11 3 -11 35 0 67 -7 78 -46 78 -24 0 -34 5 -34 16 0 12 10 14 48 12 l47
-3 3 -64z m-200 9 c48 0 104 4 125 9 l37 9 0 -77 c0 -66 -4 -82 -30 -126 -20
-34 -30 -63 -30 -93 0 -48 -16 -61 -59 -46 -33 12 -41 62 -14 90 10 10 18 23
18 29 0 7 9 28 19 47 25 47 16 86 -24 101 -19 7 -31 19 -31 32 -2 18 -2 18 -6
-2 -2 -13 -11 -23 -19 -23 -23 0 -54 -38 -54 -66 0 -14 9 -37 20 -51 11 -14
17 -30 14 -35 -3 -5 3 -18 15 -29 14 -14 21 -32 21 -58 0 -26 5 -41 16 -45 31
-12 77 -6 110 15 l34 21 0 -41 0 -41 -85 0 c-84 0 -85 0 -85 25 0 14 -7 28
-16 32 -8 3 -13 12 -9 21 7 19 -22 52 -41 45 -7 -3 -20 2 -29 11 -9 8 -22 13
-30 10 -13 -5 -15 13 -15 119 l0 126 28 3 c15 2 29 0 30 -4 2 -5 43 -8 90 -8z
m312 -15 c0 -19 -10 -18 -34 0 -10 7 -15 18 -11 24 9 15 45 -5 45 -24z m-30
-15 c14 -10 22 -22 18 -25 -8 -8 -58 24 -58 36 0 14 13 10 40 -11z m-85 -121
c-31 -52 -59 -92 -63 -89 -10 7 -9 8 50 111 30 53 55 86 60 81 5 -5 -14 -48
-47 -103z m-157 75 c26 -18 28 -44 5 -87 -17 -31 -18 -31 -21 -8 -2 13 1 28 7
34 6 6 11 17 11 24 0 17 -30 17 -31 1 0 -10 -2 -10 -6 0 -6 16 -33 16 -33 -1
0 -7 5 -18 11 -24 6 -6 9 -21 7 -34 -3 -23 -4 -23 -21 8 -9 18 -17 41 -17 52
0 19 34 51 55 51 6 0 21 -7 33 -16z m242 5 c0 -7 -19 -44 -41 -83 -40 -69 -42
-74 -43 -166 l-1 -95 -114 0 c-81 0 -116 4 -118 12 -3 9 24 13 104 15 l108 3
2 50 c0 28 4 58 8 67 5 13 2 15 -16 11 -22 -6 -22 -6 5 38 14 24 41 70 59 102
30 54 47 71 47 46z m-390 -193 c6 -8 21 -16 33 -18 14 -2 21 -9 19 -19 -1 -9
5 -22 13 -29 18 -15 20 -37 4 -42 -6 -2 -12 -15 -13 -28 -1 -19 -7 -25 -24
-26 -13 -1 -29 -10 -37 -20 -14 -18 -16 -18 -28 -2 -7 9 -24 18 -37 20 -19 2
-24 8 -23 26 2 13 -4 25 -12 28 -19 8 -19 28 0 44 9 7 13 21 10 31 -6 19 2 23
36 20 9 -1 19 5 22 14 8 19 21 19 37 1z"/>
<path d="M580 820 c-24 -24 -25 -48 -4 -78 19 -27 64 -29 87 -4 24 26 21 68
-5 86 -30 21 -54 20 -78 -4z m79 -22 c10 -28 4 -45 -19 -58 -25 -14 -49 -2
-56 26 -13 49 58 78 75 32z"/>
</g>
</svg>
